<svg xmlns="http://www.w3.org/2000/svg" aria-hidden="true" focusable="false" viewBox="0 0 32 32" role="img"><g fill="#F5DC56"><path d="M 22.962 8.863 c -2.628 -2.576 -4.988 -5.407 -7.045 -8.458 l -0.123 -0.193 c -2.234 3.193 -4.556 5.993 -7.083 8.592 l 0.015 -0.016 c -2.645 2.742 -5.496 5.245 -8.542 7.499 l -0.184 0.13 c 3.341 2.271 6.262 4.682 8.943 7.335 l -0.005 -0.005 c 2.459 2.429 4.71 5.055 6.731 7.858 l 0.125 0.182 c 4.324 -6.341 9.724 -11.606 15.986 -15.649 l 0.219 -0.133 c -3.401 -2.168 -6.359 -4.524 -9.048 -7.153 l 0.01 0.01 Z M 18.761 18.998 c -1.036 1.024 -1.971 2.145 -2.792 3.35 l -0.05 0.078 c -0.884 -1.215 -1.8 -2.285 -2.793 -3.279 l 0 0 c -1.09 -1.075 -2.28 -2.055 -3.552 -2.923 l -0.088 -0.057 c 1.326 -0.969 2.495 -1.988 3.571 -3.097 l 0.007 -0.007 c 1.01 -1.051 1.947 -2.191 2.794 -3.399 l 0.061 -0.092 c 0.882 1.32 1.842 2.471 2.912 3.51 l 0.005 0.005 c 1.089 1.072 2.293 2.034 3.589 2.864 l 0.088 0.053 c -1.412 0.905 -2.641 1.891 -3.754 2.994 l 0.002 -0.002 Z"/><path d="M520.5 78.1z"/></g></svg>